<?xml version="1.0" encoding="UTF-8"?>
<svg id="Layer_1" xmlns="http://www.w3.org/2000/svg" version="1.1" viewBox="0 0 32 32">
  <!-- Generator: Adobe Illustrator 29.1.0, SVG Export Plug-In . SVG Version: 2.1.0 Build 142)  -->
  <defs>
    <style>
      .st0 {
        fill: none;
        stroke: #fff;
        stroke-linecap: round;
        stroke-linejoin: round;
      }

      .st1 {
        fill: #f43f5e;
      }
    </style>
  </defs>
  <path class="st1" d="M23.6,13.3c0,5-5.1,9-11.5,9s-2.2-.1-3.2-.4l-5.9,3.3,1-5.6c-2-1.6-3.3-3.9-3.3-6.3C.6,8.4,5.8,4.3,12.1,4.3s11.5,4,11.5,9Z"/>
  <path class="st0" d="M14.2,11.2c0-.9.8-1.6,1.8-1.6s1.8.7,1.8,1.6"/>
  <path class="st0" d="M5.4,11.2c0-.9.8-1.6,1.8-1.6s1.8.7,1.8,1.6"/>
  <path class="st0" d="M14.9,14.8c0,1.5-1.5,2.8-3.4,2.8s-3.4-1.2-3.4-2.8h6.8Z"/>
  <path class="st1" d="M19.1,21.4c3.2-1.7,6.2-5,5-10,0,0-.5-2.7-3-4.6,0,0,5.8.3,9.1,5.1s-1,9.8-2.2,10.2l1,5.6-5.9-3.3s-5.3,1.5-10.3-1.6c0,0,2.4.7,6.3-1.4Z"/>
</svg>